<svg width="170.000000" height="36.000000" viewBox="0 0 170 36" fill="none" xmlns="http://www.w3.org/2000/svg" xmlns:xlink="http://www.w3.org/1999/xlink">
	<desc>
			Created with Pixso.
	</desc>
	<defs>
		<clipPath id="clip2_2">
			<rect id="logo" width="170.000000" height="36.000000" fill="white" fill-opacity="0"/>
		</clipPath>
		<linearGradient x1="14.912281" y1="3.000000" x2="14.912281" y2="33.000000" id="paint_linear_2_3_0" gradientUnits="userSpaceOnUse">
			<stop stop-color="#877EFF"/>
			<stop offset="0.461458" stop-color="#685DFF"/>
			<stop offset="1.000000" stop-color="#3121FF"/>
		</linearGradient>
	</defs>
	<g clip-path="url(#clip2_2)">
		<path id="path" d="M27.67 18C27.67 25.08 21.95 30.83 14.91 30.83C7.86 30.83 2.15 25.08 2.15 18C2.15 10.91 7.86 5.16 14.91 5.16C21.95 5.16 27.67 10.91 27.67 18ZM29.82 18C29.82 26.28 23.14 33 14.91 33C6.67 33 0 26.28 0 18C0 9.71 6.67 3 14.91 3C23.14 3 29.82 9.71 29.82 18ZM23.13 11.27C23.13 12.13 22.44 12.82 21.59 12.82C20.74 12.82 20.05 12.13 20.05 11.27C20.05 10.41 20.74 9.72 21.59 9.72C22.44 9.72 23.13 10.41 23.13 11.27ZM10.42 19.2C11.09 21.7 13.63 23.17 16.11 22.51C18.59 21.84 20.06 19.28 19.39 16.79C18.73 14.29 16.18 12.82 13.71 13.48C11.23 14.15 9.76 16.71 10.42 19.2ZM8.34 19.76C9.31 23.41 13.04 25.58 16.67 24.6C20.29 23.62 22.45 19.87 21.47 16.23C20.5 12.58 16.77 10.41 13.15 11.39C9.52 12.37 7.37 16.12 8.34 19.76Z" fill="url(#paint_linear_2_3_0)" fill-opacity="1.000000" fill-rule="evenodd"/>
		<path id="PostBook" d="M158.73 27L154.67 27L154.67 4.65L158.73 4.65L158.73 18.06L158.84 18.06L164.19 11.31L168.7 11.31L163.32 17.78L169.2 27L164.75 27L160.94 20.5L158.73 23.02L158.73 27ZM44.69 27L40.54 27L40.54 6.25L47.35 6.25C51.94 6.25 55.47 7.87 55.47 12.77C55.47 17.5 51.91 19.63 47.46 19.63L44.69 19.63L44.69 27ZM108.27 27L100.89 27L100.89 6.25L107.74 6.25C112 6.25 115.25 7.51 115.25 11.37C115.25 13.28 114.18 15.24 112.42 15.85L112.42 15.99C114.66 16.52 116.31 18.09 116.31 20.89C116.31 25.06 112.84 27 108.27 27ZM97.83 26.8C96.99 27.08 95.9 27.38 94.53 27.38C90.8 27.38 89.38 25.01 89.38 21.51L89.38 14.56L87.16 14.56L87.16 11.51L89.6 11.31L90.08 7.09L93.49 7.09L93.49 11.31L97.36 11.31L97.36 14.56L93.49 14.56L93.49 21.51C93.49 23.3 94.22 24.14 95.62 24.14C96.12 24.14 96.74 23.97 97.16 23.8L97.83 26.8ZM105.03 9.44L105.03 14.7L107.43 14.7C110.07 14.7 111.21 13.64 111.21 11.99C111.21 10.16 109.98 9.44 107.49 9.44L105.03 9.44ZM44.69 9.55L44.69 16.36L47.18 16.36C50.03 16.36 51.41 15.15 51.41 12.77C51.41 10.36 49.9 9.55 47.04 9.55L44.69 9.55ZM72.27 19.15C72.27 24.36 68.65 27.38 64.73 27.38C60.82 27.38 57.2 24.36 57.2 19.15C57.2 13.95 60.82 10.92 64.73 10.92C68.65 10.92 72.27 13.95 72.27 19.15ZM86.29 22.43C86.29 25.18 84.14 27.38 80.05 27.38C77.95 27.38 75.66 26.46 74.08 25.18L75.96 22.6C77.36 23.69 78.7 24.31 80.16 24.31C81.73 24.31 82.43 23.63 82.43 22.65C82.43 21.48 80.81 20.95 79.16 20.3C77.17 19.54 74.95 18.34 74.95 15.71C74.95 12.91 77.22 10.92 80.81 10.92C83.07 10.92 84.84 11.87 86.13 12.86L84.28 15.35C83.16 14.53 82.07 14 80.92 14C79.49 14 78.82 14.62 78.82 15.52C78.82 16.67 80.28 17.08 81.92 17.7C84 18.48 86.29 19.52 86.29 22.43ZM133.7 19.15C133.7 24.36 130.08 27.38 126.17 27.38C122.25 27.38 118.63 24.36 118.63 19.15C118.63 13.95 122.25 10.92 126.17 10.92C130.08 10.92 133.7 13.95 133.7 19.15ZM151.23 19.15C151.23 24.36 147.61 27.38 143.7 27.38C139.78 27.38 136.16 24.36 136.16 19.15C136.16 13.95 139.78 10.92 143.7 10.92C147.61 10.92 151.23 13.95 151.23 19.15ZM61.41 19.15C61.41 22.12 62.61 24.03 64.73 24.03C66.86 24.03 68.06 22.12 68.06 19.15C68.06 16.21 66.86 14.28 64.73 14.28C62.61 14.28 61.41 16.21 61.41 19.15ZM122.84 19.15C122.84 22.12 124.04 24.03 126.17 24.03C128.29 24.03 129.5 22.12 129.5 19.15C129.5 16.21 128.29 14.28 126.17 14.28C124.04 14.28 122.84 16.21 122.84 19.15ZM140.37 19.15C140.37 22.12 141.57 24.03 143.7 24.03C145.82 24.03 147.02 22.12 147.02 19.15C147.02 16.21 145.82 14.28 143.7 14.28C141.57 14.28 140.37 16.21 140.37 19.15ZM105.03 17.75L105.03 23.8L107.91 23.8C110.74 23.8 112.28 22.8 112.28 20.64C112.28 18.62 110.77 17.75 107.91 17.75L105.03 17.75Z" fill="#FFFFFF" fill-opacity="1.000000" fill-rule="evenodd"/>
		<path id="PostBook" d="M40.54 27L44.69 27L44.69 19.63L47.46 19.63C51.91 19.63 55.47 17.5 55.47 12.77C55.47 7.87 51.94 6.25 47.35 6.25L40.54 6.25L40.54 27ZM44.69 16.36L44.69 9.55L47.04 9.55C49.9 9.55 51.41 10.36 51.41 12.77C51.41 15.15 50.03 16.36 47.18 16.36L44.69 16.36ZM64.73 27.38C68.65 27.38 72.27 24.36 72.27 19.15C72.27 13.95 68.65 10.92 64.73 10.92C60.82 10.92 57.2 13.95 57.2 19.15C57.2 24.36 60.82 27.38 64.73 27.38ZM64.73 24.03C62.61 24.03 61.41 22.12 61.41 19.15C61.41 16.21 62.61 14.28 64.73 14.28C66.86 14.28 68.06 16.21 68.06 19.15C68.06 22.12 66.86 24.03 64.73 24.03ZM80.05 27.38C84.14 27.38 86.29 25.18 86.29 22.43C86.29 19.52 84 18.48 81.92 17.7C80.28 17.08 78.82 16.67 78.82 15.52C78.82 14.62 79.49 14 80.92 14C82.07 14 83.16 14.53 84.28 15.35L86.13 12.86C84.84 11.87 83.07 10.92 80.81 10.92C77.22 10.92 74.95 12.91 74.95 15.71C74.95 18.34 77.17 19.54 79.16 20.3C80.81 20.95 82.43 21.48 82.43 22.65C82.43 23.63 81.73 24.31 80.16 24.31C78.7 24.31 77.36 23.69 75.96 22.6L74.08 25.18C75.66 26.46 77.95 27.38 80.05 27.38ZM94.53 27.38C95.9 27.38 96.99 27.08 97.83 26.8L97.16 23.8C96.74 23.97 96.12 24.14 95.62 24.14C94.22 24.14 93.49 23.3 93.49 21.51L93.49 14.56L97.36 14.56L97.36 11.31L93.49 11.31L93.49 7.09L90.08 7.09L89.6 11.31L87.16 11.51L87.16 14.56L89.38 14.56L89.38 21.51C89.38 25.01 90.8 27.38 94.53 27.38ZM100.89 27L108.27 27C112.84 27 116.31 25.06 116.31 20.89C116.31 18.09 114.66 16.52 112.42 15.99L112.42 15.85C114.18 15.24 115.25 13.28 115.25 11.37C115.25 7.51 112 6.25 107.74 6.25L100.89 6.25L100.89 27ZM105.03 14.7L105.03 9.44L107.49 9.44C109.98 9.44 111.21 10.16 111.21 11.99C111.21 13.64 110.07 14.7 107.43 14.7L105.03 14.7ZM105.03 23.8L105.03 17.75L107.91 17.75C110.77 17.75 112.28 18.62 112.28 20.64C112.28 22.8 110.74 23.8 107.91 23.8L105.03 23.8ZM126.17 27.38C130.08 27.38 133.7 24.36 133.7 19.15C133.7 13.95 130.08 10.92 126.17 10.92C122.25 10.92 118.63 13.95 118.63 19.15C118.63 24.36 122.25 27.38 126.17 27.38ZM126.17 24.03C124.04 24.03 122.84 22.12 122.84 19.15C122.84 16.21 124.04 14.28 126.17 14.28C128.29 14.28 129.5 16.21 129.5 19.15C129.5 22.12 128.29 24.03 126.17 24.03ZM143.7 27.38C147.61 27.38 151.23 24.36 151.23 19.15C151.23 13.95 147.61 10.92 143.7 10.92C139.78 10.92 136.16 13.95 136.16 19.15C136.16 24.36 139.78 27.38 143.7 27.38ZM143.7 24.03C141.57 24.03 140.37 22.12 140.37 19.15C140.37 16.21 141.57 14.28 143.7 14.28C145.82 14.28 147.02 16.21 147.02 19.15C147.02 22.12 145.82 24.03 143.7 24.03ZM154.67 27L158.73 27L158.73 23.02L160.94 20.5L164.75 27L169.2 27L163.32 17.78L168.7 11.31L164.19 11.31L158.84 18.06L158.73 18.06L158.73 4.65L154.67 4.65L154.67 27Z" stroke="#000000" stroke-opacity="0" stroke-width="1.000000"/>
	</g>
</svg>
